<?xml version="1.0" encoding="UTF-8" standalone="no"?>
<!-- Created with Inkscape (http://www.inkscape.org/) -->

<svg
   xmlns:dc="http://purl.org/dc/elements/1.1/"
   xmlns:cc="http://creativecommons.org/ns#"
   xmlns:rdf="http://www.w3.org/1999/02/22-rdf-syntax-ns#"
   xmlns:svg="http://www.w3.org/2000/svg"
   xmlns="http://www.w3.org/2000/svg"
   xmlns:sodipodi="http://sodipodi.sourceforge.net/DTD/sodipodi-0.dtd"
   xmlns:inkscape="http://www.inkscape.org/namespaces/inkscape"
   width="400mm"
   height="250mm"
   viewBox="0 0 400 250"
   version="1.1"
   id="svg8"
   inkscape:version="0.92.3 (2405546, 2018-03-11)"
   sodipodi:docname="oko.svg">
  <defs
     id="defs2" />
  <sodipodi:namedview
     id="base"
     pagecolor="#ffffff"
     bordercolor="#666666"
     borderopacity="1.0"
     inkscape:pageopacity="0.0"
     inkscape:pageshadow="2"
     inkscape:zoom="0.7"
     inkscape:cx="611.47823"
     inkscape:cy="468.12562"
     inkscape:document-units="mm"
     inkscape:current-layer="layer1"
     showgrid="false"
     height="209mm"
     inkscape:window-width="1920"
     inkscape:window-height="956"
     inkscape:window-x="0"
     inkscape:window-y="27"
     inkscape:window-maximized="1"
     showguides="true"
     inkscape:guide-bbox="true">
    <sodipodi:guide
       position="140.98512,125"
       orientation="0,1"
       id="guide3744"
       inkscape:locked="false"
       inkscape:label=""
       inkscape:color="rgb(0,0,255)" />
    <sodipodi:guide
       position="200,90.336308"
       orientation="1,0"
       id="guide3746"
       inkscape:locked="false"
       inkscape:label=""
       inkscape:color="rgb(0,0,255)" />
  </sodipodi:namedview>
  <metadata
     id="metadata5">
    <rdf:RDF>
      <cc:Work
         rdf:about="">
        <dc:format>image/svg+xml</dc:format>
        <dc:type
           rdf:resource="http://purl.org/dc/dcmitype/StillImage" />
        <dc:title />
      </cc:Work>
    </rdf:RDF>
  </metadata>
  <g
     inkscape:label="Layer 1"
     inkscape:groupmode="layer"
     id="layer1"
     transform="translate(0,-47)">
    <path
       style="stroke-width:0.99999994"
       d="M 755.90625 305.71484 A 166.72666 166.72666 0 0 0 716.5332 310.61719 L 755.90625 472.44141 L 599.49805 415.30078 A 166.72666 166.72666 0 0 0 589.17969 472.44141 A 166.72666 166.72666 0 0 0 755.90625 639.16797 A 166.72666 166.72666 0 0 0 922.63281 472.44141 A 166.72666 166.72666 0 0 0 755.90625 305.71484 z "
       transform="matrix(0.26458333,0,0,0.26458333,0,47)"
       id="path3756" />
    <circle
       id="path3750"
       cx="200.32739"
       cy="172.26785"
       r="33.261906"
       style="fill:#ffffff;stroke-width:0.26458332" />
    <path
       style="fill:#000000;stroke-width:0.99999994"
       d="M 755.71484 379.16797 A 95.714289 95.714289 0 0 0 733.85547 381.81641 L 755.90625 472.44141 L 666.73242 439.86328 A 95.714289 95.714289 0 0 0 660 474.88281 A 95.714289 95.714289 0 0 0 755.71484 570.5957 A 95.714289 95.714289 0 0 0 851.42773 474.88281 A 95.714289 95.714289 0 0 0 755.71484 379.16797 z "
       transform="matrix(0.26458333,0,0,0.26458333,0,47)"
       id="path3760" />
  </g>
</svg>
